HIERARCHY
ROOT pelvis
{
  OFFSET 0 100 0
  CHANNELS 6 Xposition Yposition Zposition Zrotation Xrotation Yrotation
  JOINT pelvis_right_femur
  {
    OFFSET -10.78128 -3.44521 -0.5502486
    CHANNELS 3 Zrotation Xrotation Yrotation
    JOINT right_femur_tibia
    {
      OFFSET -0.8047443 -44.0398 -0.1307829
      CHANNELS 3 Zrotation Xrotation Yrotation
      JOINT right_tibia_foot
      {
        OFFSET 3.006224 -47.83518 -5
        CHANNELS 3 Zrotation Xrotation Yrotation
        End Site
        {
          OFFSET 0 -5 15
        }
      }
    }
  }
  JOINT pelvis_left_femur
  {
    OFFSET 10.78128 -3.44521 -0.5502486
    CHANNELS 3 Zrotation Xrotation Yrotation
    JOINT left_femur_tibia
    {
      OFFSET 0.8047443 -44.0398 -0.1307829
      CHANNELS 3 Zrotation Xrotation Yrotation
      JOINT left_tibia_foot
      {
        OFFSET -4.370144 -48.10324 -4.275266
        CHANNELS 3 Zrotation Xrotation Yrotation
        End Site
        {
          OFFSET 0 -5 15
        }
      }
    }
  }
  JOINT pelvis_spine1
  {
    OFFSET 0 6.468898 -3.129235
    CHANNELS 3 Zrotation Xrotation Yrotation
    JOINT spine1
    {
      OFFSET 0 23.15396 4.99043
      CHANNELS 3 Zrotation Xrotation Yrotation
      JOINT spine2
      {
        OFFSET 0 20.79997 -5.064912
        CHANNELS 3 Zrotation Xrotation Yrotation
        JOINT neck
        {
          OFFSET 0 14.38658 9.616178
          CHANNELS 3 Zrotation Xrotation Yrotation
          End Site
          {
            OFFSET 0 20 0
          }
        }
      }
      JOINT right_manubrium
      {
        OFFSET -5.722621 16.35077 3.967754
        CHANNELS 3 Zrotation Xrotation Yrotation
        JOINT right_clavicle
        {
          OFFSET -13.16364 1.694482 -4.693211
          CHANNELS 3 Zrotation Xrotation Yrotation
          JOINT right_humerus
          {
            OFFSET -28.5034 -0.3100689 -2.792744
            CHANNELS 3 Zrotation Xrotation Yrotation
            JOINT right_radius
            {
              OFFSET -25.15693 0.02248979 -1.271978
              CHANNELS 3 Zrotation Xrotation Yrotation
              End Site
              {
                OFFSET -15 0 0
              }
            }
          }
        }
      }
      JOINT left_manubrium
      {
        OFFSET 5.722621 16.35077 3.967754
        CHANNELS 3 Zrotation Xrotation Yrotation
        JOINT left_clavicle
        {
          OFFSET 13.16364 1.694482 -4.693211
          CHANNELS 3 Zrotation Xrotation Yrotation
          JOINT left_humerus
          {
            OFFSET 29.39168 -1.063119 -2.237045
            CHANNELS 3 Zrotation Xrotation Yrotation
            JOINT left_radius
            {
              OFFSET 24.59957 -0.9528479 0.9047498
              CHANNELS 3 Zrotation Xrotation Yrotation
              End Site
              {
                OFFSET 15 -0 -0
              }
            }
          }
        }
      }
    }
  }
}
MOTION
Frames: 15
Frame Time: 0.0416666666667
-60.70084 107.5787 72.94631 3.204017 -11.14725 19.80476 7.393528 5.906165 -4.361725 -0 14.07631 -0 -8.911726 0.08840077 0.9884239 0.5777403 -6.913688 -5.959988 -0 23.21394 -0 1.219789 -5.41704 13.31351 2.618932 -6.1413 6.03536 0.713571 19.28708 -6.741779 2.167861 22.55288 0.9994222 -1.376446 -21.9135 4.525131 -6.025876 -33.10189 13.91095 96.85711 -1.63753 -15.43898 -0 0 19.99117 -27.98836 15.07276 19.26557 -0.7887937 -25.45826 -13.37483 -96.59598 23.85463 34.60632 0 0 -24.77806 -3.34314 19.58891 18.22041
-58.19455 107.5706 78.05731 3.058874 -11.18747 19.05535 7.393528 5.906165 -4.361725 -0 14.07631 -0 -8.911726 0.08840077 0.9884239 0.5777403 -6.913688 -5.959988 -0 23.21394 -0 1.219789 -5.41704 13.31351 2.618932 -6.1413 6.03536 0.713571 19.28708 -6.741779 2.167861 22.55288 0.9994222 -1.376446 -21.9135 4.525131 -6.025876 -33.10189 13.91095 96.85711 -1.63753 -15.43898 -0 0 19.99117 -27.98836 15.07276 19.26557 -0.7887937 -25.45826 -13.37483 -96.59598 23.85463 34.60632 0 0 -24.77806 -3.34314 19.58891 18.22041
-55.75414 107.5624 83.20009 2.913187 -11.22583 18.30574 7.393528 5.906165 -4.361725 -0 14.07631 -0 -8.911726 0.08840077 0.9884239 0.5777403 -6.913688 -5.959988 -0 23.21394 -0 1.219789 -5.41704 13.31351 2.618932 -6.1413 6.03536 0.713571 19.28708 -6.741779 2.167861 22.55288 0.9994222 -1.376446 -21.9135 4.525131 -6.025876 -33.10189 13.91095 96.85711 -1.63753 -15.43898 -0 0 19.99117 -27.98836 15.07276 19.26557 -0.7887937 -25.45826 -13.37483 -96.59598 23.85463 34.60632 0 0 -24.77806 -3.34314 19.58891 18.22041
-53.38003 107.5543 88.37381 2.766981 -11.26231 17.55594 7.393528 5.906165 -4.361725 -0 14.07631 -0 -8.911726 0.08840077 0.9884239 0.5777403 -6.913688 -5.959988 -0 23.21394 -0 1.219789 -5.41704 13.31351 2.618932 -6.1413 6.03536 0.713571 19.28708 -6.741779 2.167861 22.55288 0.9994222 -1.376446 -21.9135 4.525131 -6.025876 -33.10189 13.91095 96.85711 -1.63753 -15.43898 -0 0 19.99117 -27.98836 15.07276 19.26557 -0.7887937 -25.45826 -13.37483 -96.59598 23.85463 34.60632 0 0 -24.77806 -3.34314 19.58891 18.22041
-51.07259 107.5461 93.57761 2.620284 -11.29692 16.80595 7.393528 5.906165 -4.361725 -0 14.07631 -0 -8.911726 0.08840077 0.9884239 0.5777403 -6.913688 -5.959988 -0 23.21394 -0 1.219789 -5.41704 13.31351 2.618932 -6.1413 6.03536 0.713571 19.28708 -6.741779 2.167861 22.55288 0.9994222 -1.376446 -21.9135 4.525131 -6.025876 -33.10189 13.91095 96.85711 -1.63753 -15.43898 -0 0 19.99117 -27.98836 15.07276 19.26557 -0.7887937 -25.45826 -13.37483 -96.59598 23.85463 34.60632 0 0 -24.77806 -3.34314 19.58891 18.22041
-48.83222 107.538 98.81063 2.47312 -11.32964 16.05579 7.393528 5.906165 -4.361725 -0 14.07631 -0 -8.911726 0.08840077 0.9884239 0.5777403 -6.913688 -5.959988 -0 23.21394 -0 1.219789 -5.41704 13.31351 2.618932 -6.1413 6.03536 0.713571 19.28708 -6.741779 2.167861 22.55288 0.9994222 -1.376446 -21.9135 4.525131 -6.025876 -33.10189 13.91095 96.85711 -1.63753 -15.43898 -0 0 19.99117 -27.98836 15.07276 19.26557 -0.7887937 -25.45826 -13.37483 -96.59598 23.85463 34.60632 0 0 -24.77806 -3.34314 19.58891 18.22041
-46.65928 107.5298 104.072 2.325515 -11.36046 15.30546 7.393528 5.906165 -4.361725 -0 14.07631 -0 -8.911726 0.08840077 0.9884239 0.5777403 -6.913688 -5.959988 -0 23.21394 -0 1.219789 -5.41704 13.31351 2.618932 -6.1413 6.03536 0.713571 19.28708 -6.741779 2.167861 22.55288 0.9994222 -1.376446 -21.9135 4.525131 -6.025876 -33.10189 13.91095 96.85711 -1.63753 -15.43898 -0 0 19.99117 -27.98836 15.07276 19.26557 -0.7887937 -25.45826 -13.37483 -96.59598 23.85463 34.60632 0 0 -24.77806 -3.34314 19.58891 18.22041
-44.55414 107.5217 109.3609 2.177495 -11.38939 14.55497 7.393528 5.906165 -4.361725 -0 14.07631 -0 -8.911726 0.08840077 0.9884239 0.5777403 -6.913688 -5.959988 -0 23.21394 -0 1.219789 -5.41704 13.31351 2.618932 -6.1413 6.03536 0.713571 19.28708 -6.741779 2.167861 22.55288 0.9994222 -1.376446 -21.9135 4.525131 -6.025876 -33.10189 13.91095 96.85711 -1.63753 -15.43898 -0 0 19.99117 -27.98836 15.07276 19.26557 -0.7887937 -25.45826 -13.37483 -96.59598 23.85463 34.60632 0 0 -24.77806 -3.34314 19.58891 18.22041
-42.51713 107.5135 114.6764 2.029087 -11.41641 13.80433 7.393528 5.906165 -4.361725 -0 14.07631 -0 -8.911726 0.08840077 0.9884239 0.5777403 -6.913688 -5.959988 -0 23.21394 -0 1.219789 -5.41704 13.31351 2.618932 -6.1413 6.03536 0.713571 19.28708 -6.741779 2.167861 22.55288 0.9994222 -1.376446 -21.9135 4.525131 -6.025876 -33.10189 13.91095 96.85711 -1.63753 -15.43898 -0 0 19.99117 -27.98836 15.07276 19.26557 -0.7887937 -25.45826 -13.37483 -96.59598 23.85463 34.60632 0 0 -24.77806 -3.34314 19.58891 18.22041
-40.5486 107.5054 120.0176 1.880317 -11.44153 13.05356 7.393528 5.906165 -4.361725 -0 14.07631 -0 -8.911726 0.08840077 0.9884239 0.5777403 -6.913688 -5.959988 -0 23.21394 -0 1.219789 -5.41704 13.31351 2.618932 -6.1413 6.03536 0.713571 19.28708 -6.741779 2.167861 22.55288 0.9994222 -1.376446 -21.9135 4.525131 -6.025876 -33.10189 13.91095 96.85711 -1.63753 -15.43898 -0 0 19.99117 -27.98836 15.07276 19.26557 -0.7887937 -25.45826 -13.37483 -96.59598 23.85463 34.60632 0 0 -24.77806 -3.34314 19.58891 18.22041
-38.64887 107.4972 125.3837 1.731211 -11.46473 12.30266 7.393528 5.906165 -4.361725 -0 14.07631 -0 -8.911726 0.08840077 0.9884239 0.5777403 -6.913688 -5.959988 -0 23.21394 -0 1.219789 -5.41704 13.31351 2.618932 -6.1413 6.03536 0.713571 19.28708 -6.741779 2.167861 22.55288 0.9994222 -1.376446 -21.9135 4.525131 -6.025876 -33.10189 13.91095 96.85711 -1.63753 -15.43898 -0 0 19.99117 -27.98836 15.07276 19.26557 -0.7887937 -25.45826 -13.37483 -96.59598 23.85463 34.60632 0 0 -24.77806 -3.34314 19.58891 18.22041
-36.81826 107.4891 130.7737 1.581796 -11.48602 11.55164 7.393528 5.906165 -4.361725 -0 14.07631 -0 -8.911726 0.08840077 0.9884239 0.5777403 -6.913688 -5.959988 -0 23.21394 -0 1.219789 -5.41704 13.31351 2.618932 -6.1413 6.03536 0.713571 19.28708 -6.741779 2.167861 22.55288 0.9994222 -1.376446 -21.9135 4.525131 -6.025876 -33.10189 13.91095 96.85711 -1.63753 -15.43898 -0 0 19.99117 -27.98836 15.07276 19.26557 -0.7887937 -25.45826 -13.37483 -96.59598 23.85463 34.60632 0 0 -24.77806 -3.34314 19.58891 18.22041
-35.05707 107.4809 136.1869 1.432099 -11.50538 10.80051 7.393528 5.906165 -4.361725 -0 14.07631 -0 -8.911726 0.08840077 0.9884239 0.5777403 -6.913688 -5.959988 -0 23.21394 -0 1.219789 -5.41704 13.31351 2.618932 -6.1413 6.03536 0.713571 19.28708 -6.741779 2.167861 22.55288 0.9994222 -1.376446 -21.9135 4.525131 -6.025876 -33.10189 13.91095 96.85711 -1.63753 -15.43898 -0 0 19.99117 -27.98836 15.07276 19.26557 -0.7887937 -25.45826 -13.37483 -96.59598 23.85463 34.60632 0 0 -24.77806 -3.34314 19.58891 18.22041
-33.36558 107.4728 141.6222 1.282145 -11.52282 10.04928 7.393528 5.906165 -4.361725 -0 14.07631 -0 -8.911726 0.08840077 0.9884239 0.5777403 -6.913688 -5.959988 -0 23.21394 -0 1.219789 -5.41704 13.31351 2.618932 -6.1413 6.03536 0.713571 19.28708 -6.741779 2.167861 22.55288 0.9994222 -1.376446 -21.9135 4.525131 -6.025876 -33.10189 13.91095 96.85711 -1.63753 -15.43898 -0 0 19.99117 -27.98836 15.07276 19.26557 -0.7887937 -25.45826 -13.37483 -96.59598 23.85463 34.60632 0 0 -24.77806 -3.34314 19.58891 18.22041
-31.74408 107.4646 147.0788 1.131962 -11.53833 9.29797 7.393528 5.906165 -4.361725 -0 14.07631 -0 -8.911726 0.08840077 0.9884239 0.5777403 -6.913688 -5.959988 -0 23.21394 -0 1.219789 -5.41704 13.31351 2.618932 -6.1413 6.03536 0.713571 19.28708 -6.741779 2.167861 22.55288 0.9994222 -1.376446 -21.9135 4.525131 -6.025876 -33.10189 13.91095 96.85711 -1.63753 -15.43898 -0 0 19.99117 -27.98836 15.07276 19.26557 -0.7887937 -25.45826 -13.37483 -96.59598 23.85463 34.60632 0 0 -24.77806 -3.34314 19.58891 18.22041
